HIERARCHY
ROOT reference
{
	OFFSET 0.000000 0.000000 0.000000
	CHANNELS 6 Xposition Yposition Zposition Xrotation Yrotation Zrotation
	JOINT root
	{
		OFFSET 0.000000 88.868896 0.000000
		CHANNELS 3 Xrotation Yrotation Zrotation
		JOINT Hips
		{
			OFFSET 0.000000 0.000000 0.000000
			CHANNELS 3 Xrotation Yrotation Zrotation
			JOINT Spine
			{
				OFFSET 0.015310 -0.106941 0.009988
				CHANNELS 3 Xrotation Yrotation Zrotation
				JOINT Spine1
				{
					OFFSET -4.537591 17.417198 -4.533400
					CHANNELS 3 Xrotation Yrotation Zrotation
					JOINT Spine2
					{
						OFFSET -5.110762 16.696503 -6.299708
						CHANNELS 3 Xrotation Yrotation Zrotation
						JOINT Neck
						{
							OFFSET -8.035751 14.455307 -8.425188
							CHANNELS 3 Xrotation Yrotation Zrotation
							JOINT Head
							{
								OFFSET -5.472109 7.678009 -6.640421
								CHANNELS 3 Xrotation Yrotation Zrotation
								End Site
								{
									OFFSET 0.000000 0.100006 0.000000
								}
							}
						}
						JOINT RightShoulder
						{
							OFFSET -6.335630 13.589600 -11.527897
							CHANNELS 3 Xrotation Yrotation Zrotation
							JOINT RightArm
							{
								OFFSET 6.261807 -6.124649 -13.486504
								CHANNELS 3 Xrotation Yrotation Zrotation
								JOINT RightForearm
								{
									OFFSET -3.586364 -13.984001 -25.617397
									CHANNELS 3 Xrotation Yrotation Zrotation
									JOINT RightHand
									{
										OFFSET -15.665901 -2.197998 -19.265198
										CHANNELS 3 Xrotation Yrotation Zrotation
										End Site
										{
											OFFSET 0.000000 0.099998 0.000000
										}
									}
								}
							}
						}
						JOINT LeftShoulder
						{
							OFFSET -9.745831 15.307495 -5.329937
							CHANNELS 3 Xrotation Yrotation Zrotation
							JOINT LeftArm
							{
								OFFSET -6.681286 3.334656 14.242400
								CHANNELS 3 Xrotation Yrotation Zrotation
								JOINT LeftForearm
								{
									OFFSET 8.206514 -13.225693 24.947897
									CHANNELS 3 Xrotation Yrotation Zrotation
									JOINT LeftHand
									{
										OFFSET -15.620705 -17.996201 -7.316578
										CHANNELS 3 Xrotation Yrotation Zrotation
										End Site
										{
											OFFSET 0.000000 0.099998 0.000000
										}
									}
								}
							}
						}
					}
				}
			}
			JOINT RightUpLeg
			{
				OFFSET 4.709320 -0.432343 -8.306290
				CHANNELS 3 Xrotation Yrotation Zrotation
				JOINT RightLeg
				{
					OFFSET -9.661633 -41.196602 -15.384899
					CHANNELS 3 Xrotation Yrotation Zrotation
					JOINT RightFoot
					{
						OFFSET 6.294162 -39.390301 10.215700
						CHANNELS 3 Xrotation Yrotation Zrotation
						JOINT RightToe
						{
							OFFSET -7.786212 -6.879600 -14.703199
							CHANNELS 3 Xrotation Yrotation Zrotation
							End Site
							{
								OFFSET 0.000000 0.100000 0.000000
							}
						}
					}
				}
			}
			JOINT LeftUpLeg
			{
				OFFSET -4.709320 0.432343 8.306280
				CHANNELS 3 Xrotation Yrotation Zrotation
				JOINT LeftLeg
				{
					OFFSET -14.158995 -39.629002 16.008404
					CHANNELS 3 Xrotation Yrotation Zrotation
					JOINT LeftFoot
					{
						OFFSET 7.749592 -36.545601 17.318697
						CHANNELS 3 Xrotation Yrotation Zrotation
						JOINT LeftToe
						{
							OFFSET -11.961399 -12.818400 4.093060
							CHANNELS 3 Xrotation Yrotation Zrotation
							End Site
							{
								OFFSET 0.000000 0.100000 0.000000
							}
						}
					}
				}
			}
		}
	}
}
MOTION
Frames: 11
Frame Time: 0.041667
0.000000 0.000000 0.000000 -0.000000 0.000000 -0.000000 -0.000000 -0.000001 -0.000002 0.000000 -0.000001 0.000003 -0.000002 0.000008 0.000001 0.000002 0.000486 0.008185 0.000002 0.003118 0.004821 -0.000009 0.000003 0.005484 -0.000009 0.000009 -0.000003 0.000003 -0.000001 -0.000002 -0.000003 0.000001 -0.000001 -0.000002 -0.000009 -0.000004 0.000000 0.000001 0.000008 0.000007 0.000011 0.000003 -0.000007 -0.000001 0.000007 0.000004 -0.000002 -0.000002 0.000002 -0.000003 0.000001 -0.000009 -0.000003 -0.000003 -0.000001 0.000088 -0.000001 -0.000006 0.000004 0.000001 0.001718 -0.003788 0.000004 -0.000020 0.000010 -0.000007 0.000003 0.000002 0.000005 0.000004 -0.000013 -0.000000 -0.000005 -0.000001 -0.000000 
0.000000 0.000000 0.000000 -0.000000 0.000000 -0.000000 -0.000000 -0.000001 -0.000002 0.000000 -0.000001 0.000003 -0.000002 0.000008 0.000001 0.000002 0.000486 0.008185 0.000002 0.003118 0.004821 -0.000009 0.000003 0.005484 -0.000009 0.000009 -0.000003 0.000003 -0.000001 -0.000002 -0.000003 0.000001 -0.000001 -0.000002 -0.000009 -0.000004 0.000000 0.000001 0.000008 0.000007 0.000011 0.000003 -0.000007 -0.000001 0.000007 0.000004 -0.000002 -0.000002 0.000002 -0.000003 0.000001 -0.000009 -0.000003 -0.000003 -0.000001 0.000088 -0.000001 -0.000006 0.000004 0.000001 0.001718 -0.003788 0.000004 -0.000020 0.000010 -0.000007 0.000003 0.000002 0.000005 0.000004 -0.000013 -0.000000 -0.000005 -0.000001 -0.000000 
-0.399419 0.000000 -1.891830 -0.000000 0.000000 -0.000000 -0.346286 0.047920 -0.170313 0.264109 0.064572 0.146299 0.033085 -0.068394 0.015640 0.031264 0.000492 0.008188 0.021231 0.003119 0.004821 -0.028054 -0.039593 0.005462 -0.038874 -0.072522 -0.035326 -0.072692 0.026496 -0.038671 0.021983 0.086990 0.029673 -0.050582 -0.078929 0.050110 -0.027409 -0.049162 -0.070856 -0.062161 0.025912 -0.039558 0.241002 -0.112018 0.424567 0.131406 -0.079515 -0.085262 -0.071890 -0.155080 -0.027736 -1.342617 -0.168731 0.151924 0.123757 -0.000086 -0.077114 0.941364 0.055962 -0.626937 0.001724 -0.003785 0.003037 0.193663 -2.301562 -1.341637 -0.393409 1.302588 2.935058 -0.786273 0.407750 0.475952 1.557961 -0.051159 1.163289 
-0.775506 0.000000 -3.773050 -0.000000 0.000000 -0.000000 -0.734425 -0.054037 -0.357471 0.519899 0.127737 0.287787 0.075389 -0.135602 0.019181 0.075633 -0.001602 -0.000022 0.051270 0.003913 -0.001379 -0.034239 -0.011182 0.005476 -0.060499 -0.022454 -0.020702 -0.007735 0.112346 -0.043483 -0.161213 0.168559 0.031013 -0.025564 -0.039878 0.025328 0.019275 -0.073347 -0.056783 -0.054997 0.111534 -0.061377 0.367419 -0.117595 0.888811 0.187196 -0.113362 -0.121409 -0.246998 -0.435864 -0.075483 -2.589257 -0.225805 0.394929 0.381099 -0.001496 -0.237468 1.894091 0.168996 -1.004458 0.006880 -0.003789 0.012127 1.137405 -4.830554 -2.500732 -0.976874 2.895207 6.609484 0.045635 -1.732144 -2.082186 0.713079 -0.288971 4.518249 
-1.175890 0.000000 -5.669130 -0.000000 0.000000 -0.000000 -1.090440 -0.203748 -0.508438 0.737224 0.181737 0.407855 0.097468 -0.178369 0.023178 0.092256 0.013897 -0.007396 0.061410 0.014761 -0.008076 -0.036975 0.010375 0.001698 -0.067163 0.018750 -0.024770 0.053750 0.201057 -0.050962 -0.326440 0.199008 0.063585 0.033536 0.052246 -0.033251 0.085802 -0.079420 -0.004646 -0.062917 0.213890 -0.095921 0.531212 -0.109543 1.294096 0.103070 -0.062355 -0.066873 -0.348190 -0.604104 -0.089508 -3.821085 -0.227184 0.695472 0.832435 -0.005274 -0.518676 2.803264 0.267412 -1.046567 0.015455 -0.003780 0.027216 3.182094 -4.915843 -4.401149 -1.633703 4.386940 10.160720 0.325510 -3.563301 -5.896098 -0.721164 -0.391448 9.737176 
-1.678062 0.000000 -7.567610 -0.000000 0.000000 -0.000000 -1.396934 -0.372229 -0.607282 0.907469 0.224848 0.501788 0.097343 -0.196319 0.030534 0.079177 0.045395 -0.009232 0.050389 0.034876 -0.011781 -0.036306 0.013098 -0.019616 -0.052656 0.031116 -0.060464 0.094332 0.278615 -0.062874 -0.440010 0.201958 0.136327 0.103465 0.160966 -0.102535 0.150142 -0.071788 0.061733 -0.090474 0.315760 -0.140366 0.693884 -0.096330 1.599329 -0.087403 0.052736 0.056770 -0.344951 -0.619421 -0.066824 -5.065243 -0.123555 1.031099 1.477261 -0.014554 -0.920426 3.741121 0.260672 -0.625040 0.027394 -0.003766 0.048243 6.296623 -3.165065 -6.752425 -2.259270 5.609892 13.171378 0.099338 -3.917582 -10.435069 -2.939965 -0.501604 15.622833 
-2.836892 0.000000 -11.051100 -0.000000 0.000000 -0.000000 -1.986189 -0.726230 -0.702191 1.208014 0.301179 0.667426 0.089727 -0.216444 0.054716 0.044300 0.118603 0.001107 0.021954 0.082653 -0.010490 0.026143 0.009503 -0.113541 0.116199 0.059552 -0.177687 0.250993 0.386309 -0.039542 -0.637723 0.379159 0.321220 0.149326 0.232147 -0.148012 0.191362 -0.059231 0.109870 -0.038655 0.410897 -0.142596 0.280581 -0.011657 1.807511 -0.217138 0.130811 0.141099 -0.207756 -0.444147 -0.026447 -7.635976 0.262998 1.614749 3.092839 -0.057639 -1.926530 6.342839 0.021672 2.269459 0.061140 -0.003675 0.107673 14.140325 0.044165 -10.694915 -3.091442 7.024245 16.792020 1.183532 -4.937851 -16.584316 -10.909926 -2.335177 20.524901 
-3.272182 0.000000 -13.034300 -0.000000 0.000000 -0.000000 -2.071969 -0.859523 -0.674980 1.191998 0.296875 0.658614 0.074303 -0.170277 0.052310 0.017882 0.173822 -0.008216 0.000204 0.117160 -0.021056 0.068068 -0.010898 -0.146465 0.212483 0.036348 -0.209834 0.286954 0.419800 -0.037474 -0.662012 0.335941 0.469304 0.188940 0.293506 -0.187264 0.222814 -0.043493 0.143046 0.000635 0.419277 -0.125144 -0.104727 -0.049337 1.748287 -0.207330 0.124901 0.134723 -0.097128 -0.292842 0.003765 -8.855899 0.507994 1.983406 3.826472 -0.086581 -2.383122 7.473853 -0.062936 3.597292 0.082784 -0.004949 0.145760 18.643522 1.427775 -11.955487 -3.216888 7.220470 17.307995 3.009017 -6.046144 -18.682120 -15.061984 -3.577972 21.473201 
-3.798272 0.000000 -14.939500 -0.000000 0.000000 -0.000000 -2.082789 -0.975334 -0.650657 1.160444 0.288652 0.641247 0.045476 -0.099646 0.041587 -0.029123 0.254012 -0.031566 -0.037294 0.165846 -0.042912 0.090543 -0.013928 -0.173558 0.267877 0.041512 -0.241033 0.294268 0.458530 -0.048855 -0.618445 0.163080 0.646169 0.227944 0.353839 -0.225919 0.227265 -0.046555 0.143125 0.060267 0.434312 -0.099274 -0.466494 -0.098748 1.553205 -0.196142 0.118182 0.127449 -0.016189 -0.150107 0.012623 -10.066098 0.583554 2.426330 4.461214 -0.116340 -2.777954 8.351651 -0.076426 4.259991 0.107467 -0.007380 0.189234 23.178382 2.521042 -12.561336 -3.107560 7.048049 16.855218 6.174380 -8.072887 -19.845323 -15.449439 -3.702154 21.568720 
-4.229753 0.000000 -16.941200 -0.000000 0.000000 -0.000000 -1.991244 -1.189954 -0.597836 1.128760 0.280757 0.623783 0.014453 0.008267 0.011190 -0.084655 0.381101 -0.088936 -0.084137 0.242423 -0.091637 0.100216 -0.007231 -0.190384 0.291556 0.060233 -0.260859 0.284111 0.479213 -0.060538 -0.586847 -0.006457 0.838330 0.253647 0.393519 -0.251402 0.218209 -0.054076 0.133922 0.095197 0.482069 -0.095916 -0.785192 -0.037929 1.310766 -0.180185 0.108605 0.117083 0.055423 -0.021219 0.011792 -11.358170 0.458539 2.875413 5.003107 -0.145224 -3.114866 9.085464 0.061116 4.371123 0.135079 -0.009947 0.237841 27.435750 3.861003 -12.850881 -2.822785 6.590058 15.662756 10.050548 -10.318075 -20.359126 -15.391602 -3.687526 21.548398 
-4.649364 0.000000 -18.805401 -0.000000 0.000000 -0.000000 -1.678873 -1.519215 -0.444411 1.018613 0.252780 0.563088 -0.024950 0.169462 -0.050212 -0.152336 0.548000 -0.191420 -0.142470 0.340883 -0.174032 0.102026 0.006939 -0.194280 0.290422 0.088054 -0.261818 0.268632 0.475921 -0.065494 -0.600304 -0.126099 1.024933 0.267458 0.414840 -0.265091 0.202791 -0.061474 0.123701 0.107423 0.554934 -0.111896 -1.061012 0.167572 1.068198 -0.158402 0.095487 0.102906 0.125192 0.098360 0.008938 -12.758877 0.326376 3.300633 5.433335 -0.170422 -3.382222 9.692780 0.207270 3.991567 0.165488 -0.012469 0.291353 31.226488 5.486921 -13.034401 -2.431162 5.919655 13.950602 14.429441 -12.522705 -20.209842 -15.583118 -3.751369 21.591751 
